<svg width="12" height="12" viewBox="0 0 12 12" fill="none" xmlns="http://www.w3.org/2000/svg">
<path d="M8.18742 1.62492C8.76709 1.62665 9.32253 1.85769 9.73242 2.26758C10.1423 2.67747 10.3733 3.23291 10.3751 3.81258V8.18742C10.3733 8.76709 10.1423 9.32253 9.73242 9.73242C9.32253 10.1423 8.76709 10.3733 8.18742 10.3751H3.81258C3.23291 10.3733 2.67747 10.1423 2.26758 9.73242C1.85769 9.32253 1.62665 8.76709 1.62492 8.18742V3.81258C1.62665 3.23291 1.85769 2.67747 2.26758 2.26758C2.67747 1.85769 3.23291 1.62665 3.81258 1.62492H8.18742ZM8.18742 0.75H3.81258C2.12812 0.75 0.75 2.12812 0.75 3.81258V8.18742C0.75 9.87187 2.12812 11.25 3.81258 11.25H8.18742C9.87187 11.25 11.25 9.87187 11.25 8.18742V3.81258C11.25 2.12812 9.87187 0.75 8.18742 0.75Z" fill="#161617"/>
<path d="M8.84369 3.81262C8.7139 3.81262 8.58702 3.77413 8.4791 3.70202C8.37118 3.62991 8.28706 3.52742 8.23739 3.40751C8.18772 3.28759 8.17473 3.15564 8.20005 3.02834C8.22537 2.90104 8.28787 2.78411 8.37965 2.69233C8.47143 2.60056 8.58836 2.53805 8.71566 2.51273C8.84296 2.48741 8.97491 2.50041 9.09483 2.55008C9.21474 2.59975 9.31723 2.68386 9.38934 2.79178C9.46145 2.8997 9.49994 3.02658 9.49994 3.15637C9.50012 3.2426 9.48328 3.32802 9.45036 3.40773C9.41745 3.48743 9.36912 3.55985 9.30814 3.62082C9.24717 3.6818 9.17475 3.73013 9.09505 3.76304C9.01534 3.79596 8.92992 3.81281 8.84369 3.81262Z" fill="#161617"/>
<path d="M6 4.24992C6.34613 4.24992 6.68449 4.35256 6.97229 4.54486C7.26009 4.73716 7.4844 5.01049 7.61686 5.33027C7.74932 5.65006 7.78397 6.00194 7.71645 6.34142C7.64892 6.6809 7.48224 6.99274 7.23749 7.23749C6.99273 7.48224 6.6809 7.64892 6.34142 7.71645C6.00194 7.78398 5.65006 7.74932 5.33027 7.61686C5.01049 7.4844 4.73716 7.26009 4.54486 6.97229C4.35256 6.68449 4.24992 6.34613 4.24992 6C4.25042 5.536 4.43496 5.09115 4.76306 4.76306C5.09115 4.43496 5.536 4.25042 6 4.24992ZM6 3.375C5.48082 3.375 4.97331 3.52895 4.54163 3.81739C4.10995 4.10583 3.7735 4.5158 3.57482 4.99546C3.37614 5.47511 3.32415 6.00291 3.42544 6.51211C3.52673 7.02131 3.77673 7.48904 4.14384 7.85616C4.51096 8.22327 4.97869 8.47328 5.48789 8.57456C5.99709 8.67585 6.52488 8.62386 7.00454 8.42518C7.4842 8.2265 7.89416 7.89005 8.1826 7.45837C8.47104 7.02669 8.62499 6.51918 8.62499 6C8.62499 5.30381 8.34843 4.63613 7.85615 4.14384C7.36387 3.65156 6.69619 3.375 6 3.375Z" fill="#161617"/>
</svg>
